<svg width="20" height="20" viewBox="0 0 20 20" fill="none" xmlns="http://www.w3.org/2000/svg">
<g clip-path="url(#clip0_15353_61785)">
<path d="M7.50002 18.3327C7.96026 18.3327 8.33335 17.9596 8.33335 17.4993C8.33335 17.0391 7.96026 16.666 7.50002 16.666C7.03978 16.666 6.66669 17.0391 6.66669 17.4993C6.66669 17.9596 7.03978 18.3327 7.50002 18.3327Z" stroke="#448469" stroke-width="1.5" stroke-linecap="round" stroke-linejoin="round"/>
<path d="M16.6666 18.3327C17.1269 18.3327 17.5 17.9596 17.5 17.4993C17.5 17.0391 17.1269 16.666 16.6666 16.666C16.2064 16.666 15.8333 17.0391 15.8333 17.4993C15.8333 17.9596 16.2064 18.3327 16.6666 18.3327Z" stroke="#448469" stroke-width="1.5" stroke-linecap="round" stroke-linejoin="round"/>
<path d="M0.833313 0.833984H4.16665L6.39998 11.9923C6.47618 12.376 6.6849 12.7206 6.9896 12.9659C7.2943 13.2112 7.67556 13.3415 8.06665 13.334H16.1666C16.5577 13.3415 16.939 13.2112 17.2437 12.9659C17.5484 12.7206 17.7571 12.376 17.8333 11.9923L19.1666 5.00065H4.99998" stroke="#448469" stroke-width="1.5" stroke-linecap="round" stroke-linejoin="round"/>
</g>
<defs>
<clipPath id="clip0_15353_61785">
<rect width="20" height="20" fill="white"/>
</clipPath>
</defs>
</svg>
