<?xml version="1.0" encoding="UTF-8"?>
<svg xmlns="http://www.w3.org/2000/svg" xmlns:xlink="http://www.w3.org/1999/xlink" width="20px" height="20px" viewBox="0 0 20 20" version="1.1">
<g id="surface1">
<path style=" stroke:none;fill-rule:nonzero;fill:rgb(69.803922%,25.490196%,25.490196%);fill-opacity:1;" d="M 3.898438 19.335938 C 3.285156 19.335938 2.757812 19.148438 2.320312 18.773438 C 1.882812 18.402344 1.667969 17.949219 1.667969 17.421875 L 1.667969 3.503906 L 0 3.503906 L 0 1.957031 L 5.972656 1.957031 L 5.972656 0.664062 L 12.640625 0.664062 L 12.640625 1.957031 L 18.609375 1.957031 L 18.609375 3.503906 L 16.945312 3.503906 L 16.945312 17.410156 C 16.945312 17.960938 16.726562 18.417969 16.296875 18.785156 C 15.863281 19.152344 15.335938 19.335938 14.710938 19.335938 Z M 15.140625 3.503906 L 3.472656 3.503906 L 3.472656 17.421875 C 3.472656 17.527344 3.511719 17.617188 3.59375 17.6875 C 3.671875 17.753906 3.773438 17.789062 3.898438 17.789062 L 14.710938 17.789062 C 14.816406 17.789062 14.917969 17.75 15.003906 17.675781 C 15.09375 17.597656 15.140625 17.515625 15.140625 17.421875 Z M 6.53125 15.644531 L 8.339844 15.644531 L 8.339844 5.644531 L 6.53125 5.644531 Z M 10.273438 15.644531 L 12.078125 15.644531 L 12.078125 5.644531 L 10.273438 5.644531 Z M 10.273438 15.644531 "/>
</g>
</svg>
