<svg width="28" height="28" viewBox="0 0 28 28" fill="none" xmlns="http://www.w3.org/2000/svg">
    <g>
        <g>
            <path
                d="M20.0296 12.015C20.0381 12.1214 20.0381 12.2278 20.0381 12.3351C20.0381 15.6062 17.1703 19.3788 11.9266 19.3788V19.3768C10.3775 19.3788 8.86067 18.9935 7.55664 18.267C7.78188 18.2905 8.00825 18.3023 8.23519 18.3028C9.5189 18.3038 10.7659 17.9297 11.7758 17.241C10.5559 17.2209 9.48616 16.5302 9.11245 15.5219C9.53979 15.5935 9.98011 15.5788 10.3995 15.4792C9.06954 15.2459 8.11269 14.2312 8.11269 13.0528V13.0214C8.50898 13.2131 8.95269 13.3194 9.40656 13.3312C8.1539 12.6042 7.76777 11.1572 8.52422 10.0258C9.97164 11.5724 12.1072 12.5126 14.3997 12.6121C14.1699 11.7523 14.4838 10.8513 15.2245 10.2469C16.3727 9.30964 18.1786 9.35768 19.2579 10.3542C19.8964 10.2449 20.5083 10.0415 21.0683 9.75327C20.8555 10.3263 20.4101 10.8131 19.8151 11.1224C20.3802 11.0645 20.9323 10.9332 21.4522 10.7327C21.0695 11.2307 20.5874 11.6645 20.0296 12.015Z"
                fill="white" />
        </g>
        <path
            d="M13.9996 27.6496C21.5383 27.6496 27.6496 21.5383 27.6496 13.9996C27.6496 6.46092 21.5383 0.349609 13.9996 0.349609C6.46092 0.349609 0.349609 6.46092 0.349609 13.9996C0.349609 21.5383 6.46092 27.6496 13.9996 27.6496Z"
            stroke="white" stroke-width="0.7" />
    </g>
    <defs>
        <clipPath id="clip0_13170_70864">
            <rect width="28" height="28" fill="white" />
        </clipPath>
        <clipPath id="clip1_13170_70864">
            <rect width="14" height="10" fill="white" transform="translate(7.5 9.5)" />
        </clipPath>
    </defs>
</svg>